<svg width="186" height="156" viewBox="0 0 186 156" fill="none" xmlns="http://www.w3.org/2000/svg">
<g clip-path="url(#clip0_1_2)">
<path d="M87.6963 22.3321V24.0582H82.4793H78.3679L72.4065 24.2637L68.5007 24.6748L63.7727 25.7024L61.1004 26.73L57.4002 28.7853L54.9334 30.6351L52.6721 32.4849L50.6165 34.5401L48.5608 37.212L46.9163 39.8839L45.0662 43.7889L43.8328 47.8995L43.4216 50.7769V57.1483L44.2439 62.6976L45.6829 68.2469L47.3274 74.0017L48.9719 79.3454L50.822 85.7168L53.4944 95.9933L57.4002 110.586L59.867 119.629L61.3059 124.562L62.5393 127.645L64.8006 131.344L67.0618 134.016L69.323 136.277L72.4065 138.538L76.5178 141.004L80.0125 142.443L84.3294 143.47L89.6741 144.087H92.552L94.4021 143.676L96.2522 142.648L97.28 141.621L98.5134 139.154L99.3357 136.071L99.9524 131.961V126.617L96.6633 126L94.1966 125.178L92.1409 123.74L90.0852 121.89L89.6741 121.068L91.5242 121.273L95.4299 122.301L99.3357 122.712H102.83L107.97 121.684L111.259 120.451L113.725 119.013L115.37 117.368L118.659 112.025L119.07 110.997V109.558L118.248 107.708L116.809 106.27L115.164 105.653L113.52 105.242L112.492 104.625L110.642 102.57L109.408 100.72L107.558 99.0762L105.297 98.0486L102.214 97.2264L99.7468 96.8154L95.0188 96.6099L93.5799 95.9933L91.1131 93.5269L88.8518 90.6495L87.2073 88.5942L86.385 88.1832L84.9461 93.938L84.7405 95.3767V99.2817L84.9461 102.776L84.1238 104.831L82.4793 107.708L80.6292 111.819L78.9846 115.313L76.929 118.396L74.6677 121.273L72.4065 123.534L70.762 124.973L69.9397 126H69.5286L69.323 126.617L68.2952 127.234H67.884L66.8562 124.767L64.3894 114.902L62.5393 107.914L59.867 98.8707L56.7835 87.1555L53.4944 74.2072L50.822 65.1639L49.7942 61.2589L49.1775 57.7649V51.599L49.9998 47.694L50.822 45.4332L52.261 42.5558L54.3167 39.6784L56.1668 37.6231L58.0169 35.7733L61.1004 33.718L64.595 32.0738L68.0896 31.0461L74.4622 30.0185L76.929 28.9909L78.5735 27.9632L80.0125 27.7577H84.3294L85.9739 28.3743L88.0296 30.224L89.4685 32.0738L90.0852 33.5125L89.8797 34.5401L88.4407 36.1844L86.385 38.0341L84.7405 38.8562L82.6848 39.2673L80.218 39.0618L76.929 37.8286L74.4622 36.801H70.5564L67.6785 37.4175L65.2117 38.4452L63.156 39.6784L61.3059 41.1171L59.4558 42.9668L57.6057 45.8442L56.1668 48.9272L55.5501 51.3935L55.3445 53.4488V55.5041L55.7556 58.3815L58.428 68.0413L62.5393 84.2781L62.9505 86.1279L64.8006 85.1002L70.1453 80.9897L73.2288 78.5233L75.49 76.6736L77.5457 74.8238L79.1902 72.974L81.0403 69.48L81.657 68.0413H82.4793L82.6848 68.4524L82.8904 72.974L83.3015 75.8514L84.3294 78.1123L84.9461 78.7288L86.5906 78.9344L89.263 76.8791L91.1131 74.8238L93.5799 70.9187L96.6633 65.575L99.1301 62.2865L100.775 60.2312L102.625 58.3815L104.475 57.3538L106.531 57.1483L108.792 57.9704L111.053 59.4091L113.314 61.2589L115.164 63.3142L117.837 66.8082L119.276 68.2469L123.593 71.1243L127.498 72.974L136.954 75.8514L138.188 76.6736L138.804 78.1123L138.599 79.551L136.954 82.8394L135.515 84.6892L133.665 86.7445L131.61 88.5942L129.143 90.0329L126.059 91.0606L121.742 91.6772L113.314 91.8827L110.231 92.4993L108.997 93.1159L109.614 94.349L110.642 95.5822L112.903 97.432L114.753 99.2817L117.426 101.337L119.687 102.776L121.537 104.42L122.976 106.886L123.387 108.119V111.613L122.77 113.669L121.126 116.546L118.453 119.835L117.631 120.862L115.164 122.712L112.286 124.151L106.325 126.206L105.914 126.617V129.289L106.325 131.344L108.175 132.166L109.408 132.577L112.698 132.783L116.398 132.372L119.892 131.344L123.181 129.7L125.237 128.056L126.882 126.412L128.526 123.945L130.171 120.246L132.637 111.202L135.31 100.72L137.571 92.2937L141.477 77.9067L143.327 70.5077L145.383 63.7252L146.616 58.587L147.233 54.682V51.599L146.616 48.7216L145.588 46.0498L144.149 43.5834L142.505 41.5281L140.86 39.8839L137.982 38.0341L134.899 36.801L132.432 36.1844H128.937L126.882 37.0065L124.826 38.2397L122.77 38.8562H119.276L119.07 38.6507L117.22 38.2397L115.987 37.4175L113.109 34.5401L112.903 33.5125L113.725 31.4572L115.37 29.4019L116.809 28.1687L118.865 27.3466H121.537L124.826 28.1687L127.704 28.9909L133.46 29.813L136.543 30.6351L140.449 32.2793L143.738 34.3346L146.822 37.0065L148.877 39.4728L150.727 42.3502L152.577 46.2553L153.4 49.9548V56.3262L152.577 61.2589L150.727 68.4524L145.999 85.3058L142.094 100.309L139.627 109.353L136.543 121.068L135.515 123.74L133.871 127.028L131.61 130.317L128.115 133.811L125.032 135.866L122.154 137.305L119.276 138.127L115.781 138.743L111.875 138.949L108.586 138.743L105.092 137.921L104.886 139.771L103.653 142.854L101.803 145.937L100.569 147.581L98.9246 148.814L95.8411 149.636L91.5242 150.047H88.2351L83.7127 149.636L79.3958 148.814L75.9011 147.581L72.4065 145.937L68.5007 143.47L65.8284 141.415L63.3616 139.154L61.9226 137.51L59.6614 134.633L57.8113 131.55L56.1668 128.261L54.9334 124.973L52.4666 116.752L48.7664 103.187L44.8606 87.9776L41.7771 76.6736L37.8714 61.6699L37.0491 56.9428V50.7769L37.8714 46.0498L39.1048 41.9392L40.5437 38.6507L43.0105 34.3346L45.8884 30.6351L48.7664 27.5522L50.822 25.7024L53.9055 23.6471L58.6336 21.1808L63.156 19.5365L66.6507 18.7144L69.5286 18.3034L72.4065 18.0978H87.6963V22.3321Z" fill="#FEFFFF"/>
<path fill-rule="evenodd" clip-rule="evenodd" d="M100.745 33.1231C108.699 33.1231 115.147 26.676 115.147 18.7231C115.147 10.7702 108.699 4.32307 100.745 4.32307C92.7904 4.32307 86.3421 10.7702 86.3421 18.7231C86.3421 26.676 92.7904 33.1231 100.745 33.1231ZM100.745 26.4769C105.028 26.4769 108.5 23.0054 108.5 18.7231C108.5 14.4407 105.028 10.9692 100.745 10.9692C96.4616 10.9692 92.9895 14.4407 92.9895 18.7231C92.9895 23.0054 96.4616 26.4769 100.745 26.4769Z" fill="#FEFFFF"/>
<ellipse cx="100.745" cy="18.7231" rx="3.32368" ry="3.32308" fill="#FEFFFF"/>
</g>
<defs>
<clipPath id="clip0_1_2">
<rect width="186" height="156" fill="white"/>
</clipPath>
</defs>
</svg>
